<!DOCTYPE svg PUBLIC "-//W3C//DTD SVG 1.1//EN" "http://www.w3.org/Graphics/SVG/1.1/DTD/svg11.dtd">

<!-- Uploaded to: SVG Find, www.svgfind.com, Transformed by: SVG Find Mixer Tools -->
<svg fill="#c9a274" width="512" height="512" version="1.1" viewBox="144 144 512 512" xmlns="http://www.w3.org/2000/svg">

<g id="SVGRepo_bgCarrier" stroke-width="0"/>

<g id="SVGRepo_tracerCarrier" stroke-linecap="round" stroke-linejoin="round"/>

<g id="SVGRepo_iconCarrier"> <g> <path d="m470.06 383.47c0-2.3633-0.78906-4.7227-1.5742-6.2969-0.78906-1.5742-3.9375-2.3633-5.5117-2.3633h-141.7c-2.3633 0-4.7227 0.78906-5.5117 2.3633s-2.3633 3.9375-1.5742 6.2969l14.957 130.68c0.78906 9.4453 9.4453 16.531 18.895 16.531h90.527c9.4453 0 17.32-7.0859 18.895-16.531zm-16.531 7.082-2.3594 17.32h-119.66l-2.3633-17.32zm-14.168 121.23c0 1.5742-1.5742 3.1484-3.1484 3.1484h-89.742c-1.5742 0-3.1484-1.5742-3.1484-3.1484l-10.234-88.168h116.51z"/> <path d="m503.12 338.6h-3.9375l2.3633-22.043c0-2.3633-0.78906-4.7227-1.5742-6.2969-0.78906-1.5742-3.9375-2.3633-5.5117-2.3633h-204.67c-2.3633 0-4.7227 0.78906-5.5117 2.3633-0.78906 1.5742-2.3633 3.9375-1.5742 6.2969l22.828 199.95c0.78906 8.6602 3.9375 15.742 9.4453 22.043h-63.762c-4.7227 0-7.8711 3.1484-7.8711 7.8711 0 22.828 18.895 41.723 41.723 41.723h214.91c22.828 0 41.723-18.895 41.723-41.723 0-4.7227-3.1484-7.8711-7.8711-7.8711h-63.762c4.7227-6.2969 8.6602-13.383 9.4453-22.043l7.8711-70.062c5.5117 1.5742 11.02 2.3633 16.531 2.3633 30.699 0 55.105-25.191 55.105-55.105-0.003906-29.91-25.191-55.102-55.895-55.102zm-3.9336 233.8h-215.7c-11.809 0-22.043-7.8711-25.191-18.105h265.29c-3.1445 11.023-13.379 18.105-24.398 18.105zm-152.72-33.848c-13.383 0-25.191-10.234-26.766-23.617l-22.039-191.29h187.36l-2.3633 23.617-19.68 167.67c-1.5742 13.383-12.594 23.617-26.766 23.617zm156.65-104.7c-4.7227 0-10.234-0.78906-14.168-2.3633l8.6602-76.359c1.5742 0 3.9375-0.78906 5.5117-0.78906 22.043 0 39.359 18.105 39.359 39.359-0.003906 21.262-18.109 40.152-39.363 40.152z"/> <path d="m347.26 277.98c-2.3633 3.9375-1.5742 8.6602 2.3633 11.02 1.5742 0.78906 3.1484 1.5742 3.9375 1.5742 2.3633 0 5.5117-1.5742 6.2969-3.9375l7.8711-12.594c5.5117-8.6602 4.7227-19.68-1.5742-27.551-2.3633-2.3633-2.3633-5.5117-0.78906-8.6602l8.6602-15.742c2.3633-3.9375 0.78906-8.6602-3.1484-11.02-3.9375-2.3633-8.6602-0.78906-11.02 3.1484l-8.6602 15.742c-4.7227 8.6602-3.9375 18.895 2.3633 25.977 2.3633 2.3633 2.3633 6.2969 0.78906 8.6602z"/> <path d="m408.66 277.98c-2.3633 3.9375-1.5742 8.6602 2.3633 11.02 1.5742 0.78906 3.1484 1.5742 3.9375 1.5742 2.3633 0 5.5117-1.5742 6.2969-3.9375l7.8711-12.594c5.5117-8.6602 4.7227-19.68-1.5742-27.551-2.3633-2.3633-2.3633-5.5117-0.78906-8.6602l8.6602-15.742c2.3633-3.9375 0.78906-8.6602-3.1484-11.02-3.9375-2.3633-8.6602-0.78906-11.02 3.1484l-8.6602 15.742c-4.7227 8.6602-3.9375 18.895 2.3633 25.977 2.3633 2.3633 2.3633 6.2969 0.78906 8.6602z"/> </g> </g>

</svg>